<mxfile host="app.diagrams.net" agent="Mozilla/5.0 (Windows NT 6.1) AppleWebKit/537.36 (KHTML, like Gecko) Chrome/109.0.0.0 Safari/537.36 Edg/109.0.1518.140" version="28.2.5">
  <diagram name="Страница — 1" id="Z-ufq54gvmZqvxlklpnx">
    <mxGraphModel dx="1121" dy="518" grid="1" gridSize="10" guides="1" tooltips="1" connect="1" arrows="1" fold="1" page="1" pageScale="1" pageWidth="827" pageHeight="1169" math="0" shadow="0">
      <root>
        <mxCell id="0" />
        <mxCell id="1" parent="0" />
        <mxCell id="nAgGEPTRNnfZ848FP20z-31" style="edgeStyle=orthogonalEdgeStyle;rounded=0;orthogonalLoop=1;jettySize=auto;html=1;exitX=1;exitY=0;exitDx=0;exitDy=0;entryX=1;entryY=0.75;entryDx=0;entryDy=0;" parent="1" target="nAgGEPTRNnfZ848FP20z-7" edge="1">
          <mxGeometry relative="1" as="geometry">
            <Array as="points">
              <mxPoint x="440" y="40" />
              <mxPoint x="650" y="40" />
              <mxPoint x="650" y="765" />
            </Array>
            <mxPoint x="440" y="60" as="sourcePoint" />
          </mxGeometry>
        </mxCell>
        <mxCell id="nAgGEPTRNnfZ848FP20z-20" style="edgeStyle=orthogonalEdgeStyle;rounded=0;orthogonalLoop=1;jettySize=auto;html=1;exitX=0;exitY=0.5;exitDx=0;exitDy=0;entryX=0;entryY=0.75;entryDx=0;entryDy=0;" parent="1" source="nAgGEPTRNnfZ848FP20z-7" edge="1">
          <mxGeometry relative="1" as="geometry">
            <mxPoint x="320" y="750" as="sourcePoint" />
            <mxPoint x="320" y="105" as="targetPoint" />
            <Array as="points">
              <mxPoint x="120" y="750" />
              <mxPoint x="120" y="115" />
            </Array>
          </mxGeometry>
        </mxCell>
        <mxCell id="U3If4Ktm8gO6m6K27FRf-35" style="edgeStyle=orthogonalEdgeStyle;rounded=0;orthogonalLoop=1;jettySize=auto;html=1;exitX=0.5;exitY=1;exitDx=0;exitDy=0;" edge="1" parent="1" source="U3If4Ktm8gO6m6K27FRf-1" target="U3If4Ktm8gO6m6K27FRf-8">
          <mxGeometry relative="1" as="geometry" />
        </mxCell>
        <mxCell id="U3If4Ktm8gO6m6K27FRf-36" style="edgeStyle=orthogonalEdgeStyle;rounded=0;orthogonalLoop=1;jettySize=auto;html=1;exitX=0.5;exitY=1;exitDx=0;exitDy=0;entryX=0.5;entryY=0;entryDx=0;entryDy=0;" edge="1" parent="1" source="U3If4Ktm8gO6m6K27FRf-1" target="U3If4Ktm8gO6m6K27FRf-4">
          <mxGeometry relative="1" as="geometry" />
        </mxCell>
        <mxCell id="U3If4Ktm8gO6m6K27FRf-1" value="Лаборатория" style="rounded=0;whiteSpace=wrap;html=1;" vertex="1" parent="1">
          <mxGeometry x="260" y="70" width="244" height="60" as="geometry" />
        </mxCell>
        <mxCell id="U3If4Ktm8gO6m6K27FRf-4" value="Сущности" style="swimlane;fontStyle=0;childLayout=stackLayout;horizontal=1;startSize=26;horizontalStack=0;resizeParent=1;resizeParentMax=0;resizeLast=0;collapsible=1;marginBottom=0;align=center;fontSize=14;" vertex="1" parent="1">
          <mxGeometry x="550" y="200" width="160" height="116" as="geometry" />
        </mxCell>
        <mxCell id="U3If4Ktm8gO6m6K27FRf-5" value="Сотрудник&lt;div&gt;&lt;br&gt;&lt;/div&gt;" style="text;strokeColor=none;fillColor=none;spacingLeft=4;spacingRight=4;overflow=hidden;rotatable=0;points=[[0,0.5],[1,0.5]];portConstraint=eastwest;fontSize=12;whiteSpace=wrap;html=1;" vertex="1" parent="U3If4Ktm8gO6m6K27FRf-4">
          <mxGeometry y="26" width="160" height="30" as="geometry" />
        </mxCell>
        <mxCell id="U3If4Ktm8gO6m6K27FRf-6" value="Запрос" style="text;strokeColor=none;fillColor=none;spacingLeft=4;spacingRight=4;overflow=hidden;rotatable=0;points=[[0,0.5],[1,0.5]];portConstraint=eastwest;fontSize=12;whiteSpace=wrap;html=1;" vertex="1" parent="U3If4Ktm8gO6m6K27FRf-4">
          <mxGeometry y="56" width="160" height="30" as="geometry" />
        </mxCell>
        <mxCell id="U3If4Ktm8gO6m6K27FRf-7" value="Отчёт" style="text;strokeColor=none;fillColor=none;spacingLeft=4;spacingRight=4;overflow=hidden;rotatable=0;points=[[0,0.5],[1,0.5]];portConstraint=eastwest;fontSize=12;whiteSpace=wrap;html=1;" vertex="1" parent="U3If4Ktm8gO6m6K27FRf-4">
          <mxGeometry y="86" width="160" height="30" as="geometry" />
        </mxCell>
        <mxCell id="U3If4Ktm8gO6m6K27FRf-8" value="Пользователи " style="swimlane;fontStyle=0;childLayout=stackLayout;horizontal=1;startSize=26;horizontalStack=0;resizeParent=1;resizeParentMax=0;resizeLast=0;collapsible=1;marginBottom=0;align=center;fontSize=14;" vertex="1" parent="1">
          <mxGeometry x="90" y="194" width="160" height="86" as="geometry" />
        </mxCell>
        <mxCell id="U3If4Ktm8gO6m6K27FRf-9" value="Отдел кадров" style="text;strokeColor=none;fillColor=none;spacingLeft=4;spacingRight=4;overflow=hidden;rotatable=0;points=[[0,0.5],[1,0.5]];portConstraint=eastwest;fontSize=12;whiteSpace=wrap;html=1;" vertex="1" parent="U3If4Ktm8gO6m6K27FRf-8">
          <mxGeometry y="26" width="160" height="30" as="geometry" />
        </mxCell>
        <mxCell id="U3If4Ktm8gO6m6K27FRf-10" value="Профком" style="text;strokeColor=none;fillColor=none;spacingLeft=4;spacingRight=4;overflow=hidden;rotatable=0;points=[[0,0.5],[1,0.5]];portConstraint=eastwest;fontSize=12;whiteSpace=wrap;html=1;" vertex="1" parent="U3If4Ktm8gO6m6K27FRf-8">
          <mxGeometry y="56" width="160" height="30" as="geometry" />
        </mxCell>
        <mxCell id="U3If4Ktm8gO6m6K27FRf-12" value="Бизнес-процессы" style="swimlane;fontStyle=0;childLayout=stackLayout;horizontal=1;startSize=26;horizontalStack=0;resizeParent=1;resizeParentMax=0;resizeLast=0;collapsible=1;marginBottom=0;align=center;fontSize=14;" vertex="1" parent="1">
          <mxGeometry x="90" y="380" width="160" height="134" as="geometry">
            <mxRectangle x="510" y="330" width="150" height="30" as="alternateBounds" />
          </mxGeometry>
        </mxCell>
        <mxCell id="U3If4Ktm8gO6m6K27FRf-13" value="Запрос" style="text;strokeColor=none;fillColor=none;spacingLeft=4;spacingRight=4;overflow=hidden;rotatable=0;points=[[0,0.5],[1,0.5]];portConstraint=eastwest;fontSize=12;whiteSpace=wrap;html=1;" vertex="1" parent="U3If4Ktm8gO6m6K27FRf-12">
          <mxGeometry y="26" width="160" height="30" as="geometry" />
        </mxCell>
        <mxCell id="U3If4Ktm8gO6m6K27FRf-14" value="Поиск" style="text;strokeColor=none;fillColor=none;spacingLeft=4;spacingRight=4;overflow=hidden;rotatable=0;points=[[0,0.5],[1,0.5]];portConstraint=eastwest;fontSize=12;whiteSpace=wrap;html=1;" vertex="1" parent="U3If4Ktm8gO6m6K27FRf-12">
          <mxGeometry y="56" width="160" height="30" as="geometry" />
        </mxCell>
        <mxCell id="U3If4Ktm8gO6m6K27FRf-15" value="Формир. отчёта&lt;div&gt;&lt;br&gt;&lt;/div&gt;" style="text;strokeColor=none;fillColor=none;spacingLeft=4;spacingRight=4;overflow=hidden;rotatable=0;points=[[0,0.5],[1,0.5]];portConstraint=eastwest;fontSize=12;whiteSpace=wrap;html=1;" vertex="1" parent="U3If4Ktm8gO6m6K27FRf-12">
          <mxGeometry y="86" width="160" height="24" as="geometry" />
        </mxCell>
        <mxCell id="U3If4Ktm8gO6m6K27FRf-16" value="&lt;div&gt;Передача&lt;/div&gt;" style="text;strokeColor=none;fillColor=none;spacingLeft=4;spacingRight=4;overflow=hidden;rotatable=0;points=[[0,0.5],[1,0.5]];portConstraint=eastwest;fontSize=12;whiteSpace=wrap;html=1;" vertex="1" parent="U3If4Ktm8gO6m6K27FRf-12">
          <mxGeometry y="110" width="160" height="24" as="geometry" />
        </mxCell>
        <mxCell id="U3If4Ktm8gO6m6K27FRf-17" value="Требования к данным" style="swimlane;fontStyle=0;childLayout=stackLayout;horizontal=1;startSize=26;horizontalStack=0;resizeParent=1;resizeParentMax=0;resizeLast=0;collapsible=1;marginBottom=0;align=center;fontSize=14;" vertex="1" parent="1">
          <mxGeometry x="80" y="600" width="160" height="146" as="geometry" />
        </mxCell>
        <mxCell id="U3If4Ktm8gO6m6K27FRf-18" value="Состав" style="text;strokeColor=none;fillColor=none;spacingLeft=4;spacingRight=4;overflow=hidden;rotatable=0;points=[[0,0.5],[1,0.5]];portConstraint=eastwest;fontSize=12;whiteSpace=wrap;html=1;" vertex="1" parent="U3If4Ktm8gO6m6K27FRf-17">
          <mxGeometry y="26" width="160" height="30" as="geometry" />
        </mxCell>
        <mxCell id="U3If4Ktm8gO6m6K27FRf-19" value="Формат" style="text;strokeColor=none;fillColor=none;spacingLeft=4;spacingRight=4;overflow=hidden;rotatable=0;points=[[0,0.5],[1,0.5]];portConstraint=eastwest;fontSize=12;whiteSpace=wrap;html=1;" vertex="1" parent="U3If4Ktm8gO6m6K27FRf-17">
          <mxGeometry y="56" width="160" height="30" as="geometry" />
        </mxCell>
        <mxCell id="U3If4Ktm8gO6m6K27FRf-20" value="Целостность" style="text;strokeColor=none;fillColor=none;spacingLeft=4;spacingRight=4;overflow=hidden;rotatable=0;points=[[0,0.5],[1,0.5]];portConstraint=eastwest;fontSize=12;whiteSpace=wrap;html=1;" vertex="1" parent="U3If4Ktm8gO6m6K27FRf-17">
          <mxGeometry y="86" width="160" height="30" as="geometry" />
        </mxCell>
        <mxCell id="U3If4Ktm8gO6m6K27FRf-21" value="Достоверность" style="text;strokeColor=none;fillColor=none;spacingLeft=4;spacingRight=4;overflow=hidden;rotatable=0;points=[[0,0.5],[1,0.5]];portConstraint=eastwest;fontSize=12;whiteSpace=wrap;html=1;" vertex="1" parent="U3If4Ktm8gO6m6K27FRf-17">
          <mxGeometry y="116" width="160" height="30" as="geometry" />
        </mxCell>
        <mxCell id="U3If4Ktm8gO6m6K27FRf-22" value="Функц. требования" style="swimlane;fontStyle=0;childLayout=stackLayout;horizontal=1;startSize=26;horizontalStack=0;resizeParent=1;resizeParentMax=0;resizeLast=0;collapsible=1;marginBottom=0;align=center;fontSize=14;" vertex="1" parent="1">
          <mxGeometry x="560" y="380" width="160" height="206" as="geometry" />
        </mxCell>
        <mxCell id="U3If4Ktm8gO6m6K27FRf-23" value="Хранение" style="text;strokeColor=none;fillColor=none;spacingLeft=4;spacingRight=4;overflow=hidden;rotatable=0;points=[[0,0.5],[1,0.5]];portConstraint=eastwest;fontSize=12;whiteSpace=wrap;html=1;" vertex="1" parent="U3If4Ktm8gO6m6K27FRf-22">
          <mxGeometry y="26" width="160" height="30" as="geometry" />
        </mxCell>
        <mxCell id="U3If4Ktm8gO6m6K27FRf-24" value="Поиск" style="text;strokeColor=none;fillColor=none;spacingLeft=4;spacingRight=4;overflow=hidden;rotatable=0;points=[[0,0.5],[1,0.5]];portConstraint=eastwest;fontSize=12;whiteSpace=wrap;html=1;" vertex="1" parent="U3If4Ktm8gO6m6K27FRf-22">
          <mxGeometry y="56" width="160" height="30" as="geometry" />
        </mxCell>
        <mxCell id="U3If4Ktm8gO6m6K27FRf-25" value="Фильтр" style="text;strokeColor=none;fillColor=none;spacingLeft=4;spacingRight=4;overflow=hidden;rotatable=0;points=[[0,0.5],[1,0.5]];portConstraint=eastwest;fontSize=12;whiteSpace=wrap;html=1;" vertex="1" parent="U3If4Ktm8gO6m6K27FRf-22">
          <mxGeometry y="86" width="160" height="30" as="geometry" />
        </mxCell>
        <mxCell id="U3If4Ktm8gO6m6K27FRf-26" value="Отчёты" style="text;strokeColor=none;fillColor=none;spacingLeft=4;spacingRight=4;overflow=hidden;rotatable=0;points=[[0,0.5],[1,0.5]];portConstraint=eastwest;fontSize=12;whiteSpace=wrap;html=1;" vertex="1" parent="U3If4Ktm8gO6m6K27FRf-22">
          <mxGeometry y="116" width="160" height="30" as="geometry" />
        </mxCell>
        <mxCell id="U3If4Ktm8gO6m6K27FRf-27" value="Безопасность" style="text;strokeColor=none;fillColor=none;spacingLeft=4;spacingRight=4;overflow=hidden;rotatable=0;points=[[0,0.5],[1,0.5]];portConstraint=eastwest;fontSize=12;whiteSpace=wrap;html=1;" vertex="1" parent="U3If4Ktm8gO6m6K27FRf-22">
          <mxGeometry y="146" width="160" height="30" as="geometry" />
        </mxCell>
        <mxCell id="U3If4Ktm8gO6m6K27FRf-29" value="Удоство" style="text;strokeColor=none;fillColor=none;spacingLeft=4;spacingRight=4;overflow=hidden;rotatable=0;points=[[0,0.5],[1,0.5]];portConstraint=eastwest;fontSize=12;whiteSpace=wrap;html=1;" vertex="1" parent="U3If4Ktm8gO6m6K27FRf-22">
          <mxGeometry y="176" width="160" height="30" as="geometry" />
        </mxCell>
        <mxCell id="U3If4Ktm8gO6m6K27FRf-30" value="Треб. к безопасности" style="swimlane;fontStyle=0;childLayout=stackLayout;horizontal=1;startSize=26;horizontalStack=0;resizeParent=1;resizeParentMax=0;resizeLast=0;collapsible=1;marginBottom=0;align=center;fontSize=14;" vertex="1" parent="1">
          <mxGeometry x="570" y="660" width="160" height="116" as="geometry" />
        </mxCell>
        <mxCell id="U3If4Ktm8gO6m6K27FRf-31" value="Доступ" style="text;strokeColor=none;fillColor=none;spacingLeft=4;spacingRight=4;overflow=hidden;rotatable=0;points=[[0,0.5],[1,0.5]];portConstraint=eastwest;fontSize=12;whiteSpace=wrap;html=1;" vertex="1" parent="U3If4Ktm8gO6m6K27FRf-30">
          <mxGeometry y="26" width="160" height="30" as="geometry" />
        </mxCell>
        <mxCell id="U3If4Ktm8gO6m6K27FRf-32" value="Аутентификация" style="text;strokeColor=none;fillColor=none;spacingLeft=4;spacingRight=4;overflow=hidden;rotatable=0;points=[[0,0.5],[1,0.5]];portConstraint=eastwest;fontSize=12;whiteSpace=wrap;html=1;" vertex="1" parent="U3If4Ktm8gO6m6K27FRf-30">
          <mxGeometry y="56" width="160" height="30" as="geometry" />
        </mxCell>
        <mxCell id="U3If4Ktm8gO6m6K27FRf-33" value="Шифрование" style="text;strokeColor=none;fillColor=none;spacingLeft=4;spacingRight=4;overflow=hidden;rotatable=0;points=[[0,0.5],[1,0.5]];portConstraint=eastwest;fontSize=12;whiteSpace=wrap;html=1;" vertex="1" parent="U3If4Ktm8gO6m6K27FRf-30">
          <mxGeometry y="86" width="160" height="30" as="geometry" />
        </mxCell>
        <mxCell id="U3If4Ktm8gO6m6K27FRf-38" value="" style="endArrow=classic;html=1;rounded=0;exitX=0.515;exitY=1.069;exitDx=0;exitDy=0;exitPerimeter=0;entryX=0.535;entryY=-0.009;entryDx=0;entryDy=0;entryPerimeter=0;" edge="1" parent="1" source="U3If4Ktm8gO6m6K27FRf-10" target="U3If4Ktm8gO6m6K27FRf-12">
          <mxGeometry width="50" height="50" relative="1" as="geometry">
            <mxPoint x="390" y="310" as="sourcePoint" />
            <mxPoint x="440" y="260" as="targetPoint" />
          </mxGeometry>
        </mxCell>
        <mxCell id="U3If4Ktm8gO6m6K27FRf-39" value="" style="endArrow=classic;html=1;rounded=0;exitX=0.494;exitY=1.05;exitDx=0;exitDy=0;exitPerimeter=0;" edge="1" parent="1" source="U3If4Ktm8gO6m6K27FRf-16" target="U3If4Ktm8gO6m6K27FRf-17">
          <mxGeometry width="50" height="50" relative="1" as="geometry">
            <mxPoint x="390" y="310" as="sourcePoint" />
            <mxPoint x="440" y="260" as="targetPoint" />
          </mxGeometry>
        </mxCell>
        <mxCell id="U3If4Ktm8gO6m6K27FRf-40" value="" style="endArrow=classic;html=1;rounded=0;exitX=0.504;exitY=0.981;exitDx=0;exitDy=0;exitPerimeter=0;entryX=0.452;entryY=-0.014;entryDx=0;entryDy=0;entryPerimeter=0;" edge="1" parent="1" source="U3If4Ktm8gO6m6K27FRf-7" target="U3If4Ktm8gO6m6K27FRf-22">
          <mxGeometry width="50" height="50" relative="1" as="geometry">
            <mxPoint x="390" y="310" as="sourcePoint" />
            <mxPoint x="440" y="260" as="targetPoint" />
          </mxGeometry>
        </mxCell>
        <mxCell id="U3If4Ktm8gO6m6K27FRf-41" value="" style="endArrow=classic;html=1;rounded=0;exitX=0.535;exitY=1.078;exitDx=0;exitDy=0;exitPerimeter=0;" edge="1" parent="1" source="U3If4Ktm8gO6m6K27FRf-29" target="U3If4Ktm8gO6m6K27FRf-30">
          <mxGeometry width="50" height="50" relative="1" as="geometry">
            <mxPoint x="390" y="690" as="sourcePoint" />
            <mxPoint x="440" y="640" as="targetPoint" />
          </mxGeometry>
        </mxCell>
      </root>
    </mxGraphModel>
  </diagram>
</mxfile>
